<?xml version="1.0" encoding="utf-8"?>
<!-- Generator: Adobe Illustrator 22.0.1, SVG Export Plug-In . SVG Version: 6.00 Build 0)  -->
<svg version="1.1" id="Шар_1" xmlns="http://www.w3.org/2000/svg" xmlns:xlink="http://www.w3.org/1999/xlink" x="0px" y="0px"
	 viewBox="0 0 100 100" style="enable-background:new 0 0 100 100;" xml:space="preserve">
<style type="text/css">
	.st0{fill:#6367CD;}
</style>
<g>
	<g>
		<path class="st0" d="M68.8,7.4c13.2,0,23.9,10.7,23.9,23.9v37.5c0,13.2-10.7,23.9-23.9,23.9H31.2c-13.2,0-23.9-10.7-23.9-23.9
			V31.2c0-13.2,10.7-23.9,23.9-23.9H68.8 M68.8,0H31.2C14,0,0,14,0,31.2v37.5C0,86,14,100,31.2,100h37.5C86,100,100,86,100,68.8
			V31.2C100,14,86,0,68.8,0L68.8,0z"/>
	</g>
	<g>
		<path class="st0" d="M50.4,32.9c9.6,0,17.4,7.8,17.4,17.4S60,67.8,50.4,67.8S33,60,33,50.4S40.8,32.9,50.4,32.9 M50.4,24.4
			c-14.4,0-26,11.6-26,26s11.6,26,26,26s26-11.6,26-26S64.7,24.4,50.4,24.4L50.4,24.4z"/>
	</g>
	<g>
		<circle class="st0" cx="77.2" cy="23.6" r="5.5"/>
	</g>
</g>
</svg>
