<?xml version="1.0" encoding="utf-8"?>
<!-- Generator: Adobe Illustrator 22.0.1, SVG Export Plug-In . SVG Version: 6.00 Build 0)  -->
<svg version="1.1" id="Шар_1" xmlns="http://www.w3.org/2000/svg" xmlns:xlink="http://www.w3.org/1999/xlink" x="0px" y="0px"
	 viewBox="0 0 100 100" style="enable-background:new 0 0 100 100;" xml:space="preserve">
<style type="text/css">
	.st0{fill:#6367CD;}
</style>
<path class="st0" d="M37.6,86.4c0.5-7.4,1-14.9,1.7-22.3c0.1-0.9,1.1-1.8,1.9-2.5c12.7-11.5,41.2-38.2,40.9-38.7
	c-1.4,0.5-36.3,21.8-52.4,32c-2.4,1.6-4.5,2-7.4,1c-6-2.2-12.2-3.8-18.3-5.9c-1.6-0.5-4-1.5-4.1-3.2c-0.1-1.8,2.3-3.1,3.8-3.7
	c12.1-4.8,24.2-9.5,36.3-14.2c17-6.6,34-13.1,51-19.6c0.8-0.3,1.6-0.7,2.5-0.9c4-1.1,6.7,0.9,6.4,5.1c-0.2,2.8-1,5.6-1.5,8.4
	C94,42.7,89.6,63.5,85.2,84.3c-0.1,0.7-0.3,1.4-0.4,2c-1.5,6-4.6,7.2-9.6,3.6c-6.6-4.8-13.2-9.6-19.7-14.6c-1.7-1.3-2.7-1.3-4.2,0.3
	c-3,3.1-6.2,6.1-9.4,9c-1,0.9-2.4,1.5-3.6,2.3C38.1,86.7,37.9,86.5,37.6,86.4z"/>
</svg>
