<?xml version="1.0" encoding="utf-8"?>
<!-- Generator: Adobe Illustrator 22.0.1, SVG Export Plug-In . SVG Version: 6.00 Build 0)  -->
<svg version="1.1" id="Шар_1" xmlns="http://www.w3.org/2000/svg" xmlns:xlink="http://www.w3.org/1999/xlink" x="0px" y="0px"
	 viewBox="0 0 100 100" style="enable-background:new 0 0 100 100;" xml:space="preserve">
<style type="text/css">
	.st0{fill:#6367CD;}
</style>
<path class="st0" d="M0,80.3c11.2,1,21.2-1.9,30.1-8.6c0,0,0-0.1,0-0.1c-0.1,0-0.2-0.1-0.2-0.1c-1.3-0.1-2.5-0.2-3.8-0.5
	c-5.6-1.3-9.9-4.4-13-9.2c-0.8-1.3-1.5-2.7-2-4.1c0-0.1-0.1-0.2-0.1-0.3c0,0,0,0,0-0.1c3.1,0.5,6.1,0.4,9.1-0.4
	c-6.7-1.6-11.6-5.5-14.6-11.7c-1.3-2.6-2.2-7.3-1.8-8.7c2.3,1.3,4.8,2.1,7.4,2.4c0.6,0.1,1.1,0.1,1.7,0.1c-6.2-4.6-9.3-10.7-9-18.5
	c0.1-3.2,1.1-6.2,2.7-9c7.9,9.5,17.7,16,29.6,19.4c4.2,1.2,8.5,1.9,13,2.1c0-0.2,0-0.4-0.1-0.5c-0.4-2.1-0.5-4.2-0.3-6.4
	C49.6,19,54,12.7,60.6,9.6c1.8-0.8,3.6-1.4,5.6-1.7c1.5-0.2,2.9-0.3,4.4-0.2c5.1,0.4,9.5,2.3,13.2,5.8c0.1,0.1,0.2,0.2,0.3,0.3
	c0.2,0.2,0.4,0.3,0.7,0.2c0.9-0.2,1.8-0.4,2.7-0.7c3.4-0.9,6.6-2.3,9.6-4c0.1,0,0.2-0.1,0.3-0.1c0,1-1.9,4.5-3.4,6.4
	c-1.5,1.9-3.3,3.5-5.4,4.8c2-0.2,3.9-0.6,5.8-1.1c1.9-0.5,3.8-1.2,5.7-2c0,0.2-0.1,0.3-0.2,0.4c-1.7,2.4-3.6,4.7-5.7,6.7
	c-1.2,1.2-2.5,2.2-3.9,3.2c-0.3,0.2-0.3,0.4-0.3,0.7c0,1.3,0.1,2.7,0,4c-0.1,1.4-0.2,2.9-0.3,4.3c-0.2,2.2-0.6,4.3-1.1,6.5
	c-1.5,6.6-4,12.8-7.5,18.5c-4.9,8-11.3,14.6-19.3,19.5c-4.8,2.9-10,5-15.5,6.4c-1.9,0.5-3.8,0.8-5.7,1.1c-1.4,0.2-2.7,0.3-4.1,0.4
	c-1.5,0.1-3.1,0.2-4.6,0.2c-1.6,0-3.2,0-4.8-0.2c-4.2-0.3-8.4-1-12.5-2.3c-4.9-1.5-9.6-3.6-14-6.3C0.4,80.5,0.2,80.4,0,80.3z"/>
</svg>
